<?xml version="1.0" encoding="UTF-8" standalone="no"?><!DOCTYPE svg PUBLIC "-//W3C//DTD SVG 1.1//EN" "http://www.w3.org/Graphics/SVG/1.1/DTD/svg11.dtd"><svg width="100%" height="100%" viewBox="0 0 224 28" version="1.1" xmlns="http://www.w3.org/2000/svg" xmlns:xlink="http://www.w3.org/1999/xlink" xml:space="preserve" xmlns:serif="http://www.serif.com/" style="fill-rule:evenodd;clip-rule:evenodd;stroke-linejoin:round;stroke-miterlimit:1.41421;"><g id="poputka.kg"><path d="M222.819,12.841c-0.993,4.881 -5.313,8.558 -10.485,8.558c-5.905,0 -10.7,-4.794 -10.7,-10.699c0,-5.906 4.795,-10.7 10.7,-10.7c3.301,0 6.255,1.498 8.218,3.851l-3.438,2.57c-1.175,-1.312 -2.882,-2.138 -4.78,-2.138c-3.541,0 -6.417,2.875 -6.417,6.417c0,3.541 2.876,6.416 6.417,6.416c2.79,0 5.167,-1.785 6.05,-4.275l-2.426,0c-2.002,0 -3.624,-1.622 -3.624,-3.624l0,0l10.597,0l0.02,0.279l0.014,-0.011c0.045,0.398 0.068,0.804 0.068,1.215c0,0.733 -0.073,1.449 -0.214,2.141l0,0l0,0Zm-4.344,0l0,0Z" style="fill:url(#_Linear1);"/><path d="M179.86,0.585l4.283,0l0,8.765l0.206,0l10.595,-8.765l6.105,0l-11.638,9.628l12.223,11.45l-6.113,0l-9.356,-8.765l-2.022,1.673l0,7.413l-4.283,0l0,-21.399Z" style="fill:url(#_Linear2);"/><circle cx="173.645" cy="19.222" r="2.762" style="fill:url(#_Linear3);"/><path d="M163.377,19.083c-1.825,1.45 -4.135,2.316 -6.645,2.316c-5.906,0 -10.7,-4.794 -10.7,-10.699c0,-5.906 4.794,-10.7 10.7,-10.7c5.905,0 10.699,4.794 10.699,10.7l0,11.284c0,0 0,0 0,0c-1.136,0 -2.225,-0.451 -3.028,-1.255c-0.468,-0.467 -0.816,-1.032 -1.026,-1.646Zm-0.229,-8.383c0,-3.542 -2.875,-6.417 -6.416,-6.417c-3.542,0 -6.417,2.875 -6.417,6.417c0,3.541 2.875,6.416 6.417,6.416c3.541,0 6.416,-2.875 6.416,-6.416l0,0Z" style="fill:url(#_Linear4);"/><path d="M124.257,0.585l4.284,0l0,8.765l0.206,0l10.594,-8.765l6.105,0l-11.637,9.628l12.223,11.45l-6.113,0l-9.357,-8.765l-2.021,1.673l0,7.413l-4.284,0l0,-21.399Z" style="fill:url(#_Linear5);"/><path d="M120.805,0.544c0,2.365 -1.917,4.282 -4.282,4.282c-2.139,0 -4.276,0 -4.276,0l0,17.158l-4.283,0l0,-17.158l-8.558,0c0,0 0,0 0,-0.001c0,-2.365 1.917,-4.282 4.282,-4.282c6.246,0 17.117,0 17.117,0c0,0 0,0 0,0.001Z" style="fill:url(#_Linear6);"/><path d="M74.554,4.282c0,-2.365 1.918,-4.282 4.283,-4.282c0,0 0.001,0 0.001,0l0,10.7c0,3.541 2.875,6.416 6.416,6.416c3.541,0 6.417,-2.875 6.417,-6.416c0,0 0,-3.439 0,-6.418c0,-2.365 1.917,-4.282 4.282,-4.282c0,0 0.001,0 0.001,0l0,10.7l-0.001,0.069c-0.037,5.873 -4.817,10.63 -10.699,10.63c-5.905,0 -10.7,-4.794 -10.7,-10.699c0,0 0,-3.439 0,-6.418Z" style="fill:url(#_Linear7);"/><path d="M49.703,10.7c0,-5.906 4.794,-10.7 10.7,-10.7c5.905,0 10.699,4.794 10.699,10.7c0,5.905 -4.794,10.699 -10.699,10.699c-2.407,0 -4.629,-0.796 -6.417,-2.139l0,3.727c0,2.366 -1.917,4.284 -4.283,4.284c0,0 0,0 0,0l0,-16.571Zm10.7,-6.417c3.541,0 6.416,2.875 6.416,6.417c0,3.541 -2.875,6.416 -6.416,6.416c-3.542,0 -6.417,-2.875 -6.417,-6.416c0,-3.542 2.875,-6.417 6.417,-6.417Z" style="fill:url(#_Linear8);"/><path d="M35.551,0c5.905,0 10.7,4.794 10.7,10.7c0,5.905 -4.795,10.699 -10.7,10.699c-5.905,0 -10.7,-4.794 -10.7,-10.699c0,-5.906 4.795,-10.7 10.7,-10.7Zm0,4.283c3.541,0 6.417,2.875 6.417,6.417c0,3.541 -2.876,6.416 -6.417,6.416c-3.541,0 -6.416,-2.875 -6.416,-6.416c0,-3.542 2.875,-6.417 6.416,-6.417Z" style="fill:url(#_Linear9);"/><path d="M0,10.7c0,-5.906 4.794,-10.7 10.7,-10.7c5.905,0 10.699,4.794 10.699,10.7c0,5.905 -4.794,10.699 -10.699,10.699c-2.407,0 -4.629,-0.796 -6.417,-2.139l0,3.727c0,2.366 -1.917,4.284 -4.283,4.284c0,0 0,0 0,0l0,-16.571Zm10.7,-6.417c3.541,0 6.416,2.875 6.416,6.417c0,3.541 -2.875,6.416 -6.416,6.416c-3.542,0 -6.417,-2.875 -6.417,-6.416c0,-3.542 2.875,-6.417 6.417,-6.417Z" style="fill:url(#_Linear10);"/></g><defs><linearGradient id="_Linear1" x1="0" y1="0" x2="1" y2="0" gradientUnits="userSpaceOnUse" gradientTransform="matrix(223.033,21.3992,-21.3992,223.033,7.10543e-15,0)"><stop offset="0" style="stop-color:#00e676;stop-opacity:1"/><stop offset="1" style="stop-color:#4db6ac;stop-opacity:1"/></linearGradient><linearGradient id="_Linear2" x1="0" y1="0" x2="1" y2="0" gradientUnits="userSpaceOnUse" gradientTransform="matrix(223.033,21.3992,-21.3992,223.033,-7.10543e-15,7.10543e-15)"><stop offset="0" style="stop-color:#00e676;stop-opacity:1"/><stop offset="1" style="stop-color:#4db6ac;stop-opacity:1"/></linearGradient><linearGradient id="_Linear3" x1="0" y1="0" x2="1" y2="0" gradientUnits="userSpaceOnUse" gradientTransform="matrix(223.033,21.3992,-21.3992,223.033,0,5.68434e-14)"><stop offset="0" style="stop-color:#00e676;stop-opacity:1"/><stop offset="1" style="stop-color:#4db6ac;stop-opacity:1"/></linearGradient><linearGradient id="_Linear4" x1="0" y1="0" x2="1" y2="0" gradientUnits="userSpaceOnUse" gradientTransform="matrix(223.033,21.3992,-21.3992,223.033,0,2.84217e-14)"><stop offset="0" style="stop-color:#00e676;stop-opacity:1"/><stop offset="1" style="stop-color:#4db6ac;stop-opacity:1"/></linearGradient><linearGradient id="_Linear5" x1="0" y1="0" x2="1" y2="0" gradientUnits="userSpaceOnUse" gradientTransform="matrix(223.033,21.3992,-21.3992,223.033,7.10543e-15,7.10543e-15)"><stop offset="0" style="stop-color:#00e676;stop-opacity:1"/><stop offset="1" style="stop-color:#4db6ac;stop-opacity:1"/></linearGradient><linearGradient id="_Linear6" x1="0" y1="0" x2="1" y2="0" gradientUnits="userSpaceOnUse" gradientTransform="matrix(223.033,21.3992,-21.3992,223.033,0,2.84217e-14)"><stop offset="0" style="stop-color:#00e676;stop-opacity:1"/><stop offset="1" style="stop-color:#4db6ac;stop-opacity:1"/></linearGradient><linearGradient id="_Linear7" x1="0" y1="0" x2="1" y2="0" gradientUnits="userSpaceOnUse" gradientTransform="matrix(223.033,21.3992,-21.3992,223.033,0,5.68434e-14)"><stop offset="0" style="stop-color:#00e676;stop-opacity:1"/><stop offset="1" style="stop-color:#4db6ac;stop-opacity:1"/></linearGradient><linearGradient id="_Linear8" x1="0" y1="0" x2="1" y2="0" gradientUnits="userSpaceOnUse" gradientTransform="matrix(223.033,21.3992,-21.3992,223.033,-7.10543e-15,2.84217e-14)"><stop offset="0" style="stop-color:#00e676;stop-opacity:1"/><stop offset="1" style="stop-color:#4db6ac;stop-opacity:1"/></linearGradient><linearGradient id="_Linear9" x1="0" y1="0" x2="1" y2="0" gradientUnits="userSpaceOnUse" gradientTransform="matrix(223.033,21.3992,-21.3992,223.033,0,2.84217e-14)"><stop offset="0" style="stop-color:#00e676;stop-opacity:1"/><stop offset="1" style="stop-color:#4db6ac;stop-opacity:1"/></linearGradient><linearGradient id="_Linear10" x1="0" y1="0" x2="1" y2="0" gradientUnits="userSpaceOnUse" gradientTransform="matrix(223.033,21.3992,-21.3992,223.033,0,2.84217e-14)"><stop offset="0" style="stop-color:#00e676;stop-opacity:1"/><stop offset="1" style="stop-color:#4db6ac;stop-opacity:1"/></linearGradient></defs></svg>